<svg id="Layer_1" xmlns="http://www.w3.org/2000/svg" viewBox="0 0 1000 1000">
  <style>
    .st1{fill:#fff}
  </style>
  <g opacity=".9">
    <path class="st1" d="M1 496.5C3.2 220.5 227.2-1.5 502 0c276.9 1.6 499.5 227.3 497 504-2.6 282.1-227 498.4-514.6 496C219.1 997.8-1.1 768.5 1 496.5zM500.9 941c243.9-1.2 439.7-196.9 440.1-439.7.3-245-199.4-443.1-445.5-441.8C254.6 60.8 57 261.7 59.1 503.4c2 243.9 198.7 438.8 441.8 437.6z"/>
    <path class="st1" d="M470.4 529.5c-61.3 0-116.8-.3-172.4.1-21.6.2-44.4-.3-44.8-28.4-.5-29.4 23.1-32.5 45.9-32.6 55.5-.2 110.9-.1 171.2-.1v-151c0-9.1-3-19.8.7-26.9 7.6-14.3 17.3-36 28.9-37.8 20.7-3.4 29.4 16.4 29.4 36.9v178.8c51.3 0 100.8-.1 150.3 0 12.4 0 26.9-3.3 36.9 1.8 12.2 6.3 20.7 19.8 30.8 30.2-11.6 9.6-22.7 26.7-34.8 27.4-52 3.1-104.4 1.3-156.6 1.4-7.7 0-15.3 1.1-26.6 2v147.3c0 11.3 3.5 24.4-1 33.6-6.4 13.3-18.6 23.8-28.3 35.5-9.9-11.5-27.4-22.4-28.3-34.6-3.4-46.3-1.5-93-1.5-139.5.2-13.1.2-26.4.2-44.1z"/>
  </g>
</svg>
