<svg id="Layer_1" xmlns="http://www.w3.org/2000/svg" viewBox="0 0 1000 1000">
  <style>
    .st0{fill:#fff}
  </style>
  <path class="st0" d="M302.8 482.4c0 15.1-12.3 27.4-27.4 27.4h-65.5c-15.1 0-27.4-12.3-27.4-27.4v-65.5c0-15.1 12.3-27.4 27.4-27.4h65.5c15.1 0 27.4 12.3 27.4 27.4v65.5zM302.8 739.8c0 15.1-12.3 27.4-27.4 27.4h-65.5c-15.1 0-27.4-12.3-27.4-27.4v-65.5c0-15.1 12.3-27.4 27.4-27.4h65.5c15.1 0 27.4 12.3 27.4 27.4v65.5zM560.2 739.8c0 15.1-12.3 27.4-27.4 27.4h-65.5c-15.1 0-27.4-12.3-27.4-27.4v-65.5c0-15.1 12.3-27.4 27.4-27.4h65.5c15.1 0 27.4 12.3 27.4 27.4v65.5zM560.2 482.4c0 15.1-12.3 27.4-27.4 27.4h-65.5c-15.1 0-27.4-12.3-27.4-27.4v-65.5c0-15.1 12.3-27.4 27.4-27.4h65.5c15.1 0 27.4 12.3 27.4 27.4v65.5zM817.5 482.4c0 15.1-12.3 27.4-27.4 27.4h-65.5c-15.1 0-27.4-12.3-27.4-27.4v-65.5c0-15.1 12.3-27.4 27.4-27.4h65.5c15.1 0 27.4 12.3 27.4 27.4v65.5zM817.5 739.8c0 15.1-12.3 27.4-27.4 27.4h-65.5c-15.1 0-27.4-12.3-27.4-27.4v-65.5c0-15.1 12.3-27.4 27.4-27.4h65.5c15.1 0 27.4 12.3 27.4 27.4v65.5z"/>
  <path class="st0" d="M903.1 90.3c-71.7-.3-143.4 0-202 0-.5-1.1-1-2.2-1.6-3.3V38.7c0-19.7-18.3-35.6-41.3-37-.1-.2-.1-.3-.2-.5-.1.1-.1.3-.2.4-1 0-1.9-.2-2.9-.2-24.6 0-44.6 16.7-44.6 37.3v46.8H386.2V38.7c0-20.4-19.6-36.9-43.8-37.3 0-.1-.1-.2-.1-.3 0 .1-.1.1-.1.2h-.5C317 1.4 297 18.1 297 38.7v51.6c-59.9 0-129.9-.2-199.9 0-78 .3-96.9 18.4-97 94.2C0 426.6-.1 668.8.2 910.9c.1 73 15.1 87.6 88.8 87.7 273.8.2 547.6.2 821.4 0 74.2 0 89.2-14.4 89.4-87.1.3-242.1.3-484.3 0-726.4-.1-75.7-19.4-94.5-96.7-94.8zm37.5 846.8h-878V151.4h234.5v26c0 20.6 20 37.3 44.6 37.3s44.6-16.7 44.6-37.3v-24.8h224.1v24.8c0 20.6 20 37.3 44.6 37.3s44.6-16.7 44.6-37.3v-24.7h241v784.4z"/>
</svg>
